<?xml version="1.0" encoding="UTF-8"?>
<svg width="125px" height="30px" viewBox="0 0 125 30" version="1.1" xmlns="http://www.w3.org/2000/svg" xmlns:xlink="http://www.w3.org/1999/xlink">
    <!-- Generator: Sketch 59.1 (86144) - https://sketch.com -->
    <title>Group 14</title>
    <desc>Created with Sketch.</desc>
    <defs>
        <polygon id="path-1" points="0 0.118475676 25.8680214 0.118475676 25.8680214 29.9999351 0 29.9999351"></polygon>
        <polygon id="path-3" points="0.0777535714 0.118475676 26.9853524 0.118475676 26.9853524 30 0.0777535714 30"></polygon>
        <polygon id="path-5" points="0.1224 0.118427027 7.91184 0.118427027 7.91184 29.9998865 0.1224 29.9998865"></polygon>
    </defs>
    <g id="desktop" stroke="none" stroke-width="1" fill="none" fill-rule="evenodd">
        <g id="Artboard-Copy-3" transform="translate(-70.000000, -50.000000)">
            <g id="Group-14" transform="translate(70.000000, 50.000000)">
                <g id="Group-3">
                    <mask id="mask-2" fill="white">
                        <use xlink:href="#path-1"></use>
                    </mask>
                    <g id="Clip-2"></g>
                    <path d="M8.49266289,6.49388108 L11.4542101,6.50458378 C12.4413925,6.50831351 13.2843484,6.63934054 13.9835686,6.89863784 C14.6826252,7.15761081 15.2199585,7.55652973 15.5955686,8.09539459 C15.9710151,8.63393514 16.1572667,9.32944865 16.1540386,10.1812865 C16.1507258,11.0235568 15.959078,11.7054486 15.5795434,12.2271243 C15.1993547,12.7484757 14.6592415,13.1264757 13.9582226,13.3612865 C13.2568767,13.5959351 12.4131031,13.7113946 11.4257572,13.707827 L8.46421006,13.6969622 L8.49266289,6.49388108 Z M16.7413673,29.9999351 L25.8680214,29.9999351 L17.0903233,18.7371243 C19.7099459,18.0067459 21.400273,18.0067459 23.4235308,15.5960432 C24.5603358,14.2416649 24.9094553,12.3433946 24.917795,10.2133946 C24.9261346,8.10269189 24.4545371,6.29052973 23.5034931,4.77658378 C22.5526126,3.26263784 21.2174553,2.10090811 19.4980214,1.29090811 C17.7785874,0.481232432 15.7708642,0.126745946 13.4741975,0.118475676 L0.117065409,0.118475676 L-1.63522013e-05,29.9999351 L8.40092704,29.9999351 L8.43968176,19.9710162 L8.81185786,19.9813946 L16.7413673,29.9999351 Z" id="Fill-1" fill="#181818" mask="url(#mask-2)"></path>
                </g>
                <path d="M29,23.3612816 L53,23.5139931 L53,30 L29,30 M29,6.40102242 L29,0 L53,0 L53,6.61332074 L29,6.56252544 M29,11.6949677 L53,11.6949677 L53,18.2736109 L29,18.2268857" id="Fill-4" fill="#181818"></path>
                <g id="Group-8" transform="translate(59.000000, 0.000000)">
                    <mask id="mask-4" fill="white">
                        <use xlink:href="#path-3"></use>
                    </mask>
                    <g id="Clip-7"></g>
                    <path d="M8.36096786,22.9940432 L11.5093607,23.0056527 C13.0141286,23.0110703 14.2996821,22.7788541 15.3658607,22.3085838 C16.4322,21.8383135 17.2467,21.0228 17.8106464,19.8631784 C18.3745929,18.7032324 18.6605036,17.0874486 18.6685393,15.0155027 C18.6767357,12.9435568 18.3982179,11.3256649 17.8337893,10.161827 C17.2690393,8.99782703 16.4402357,8.17647568 15.3481821,7.69842162 C14.2561286,7.22004324 12.9178607,6.97761081 11.3341821,6.97177297 L8.42316429,6.96107027 L8.36096786,22.9940432 Z M11.7798429,30.0000671 L0.0777535714,30.0000671 L0.192985714,0.118475676 L11.7761464,0.118475676 C14.9047714,0.129827027 17.6075036,0.73307027 19.884825,1.92755676 C22.1623071,3.12220541 23.9182714,4.83252973 25.1522357,7.05901622 C26.3858786,9.28582703 26.997075,11.9482054 26.9853524,15.0463135 C26.9731286,18.1447459 26.3437714,20.8022595 25.0982357,23.0196649 C23.8512536,25.2369081 22.0925571,26.9347459 19.8211821,28.1123676 C17.5488429,29.2896649 14.8690929,30.0112865 11.7798429,30.0000671 L11.7798429,30.0000671 Z" id="Fill-6" fill="#181818" mask="url(#mask-4)"></path>
                </g>
                <path d="M90,0 L113,0 L113,6.72012113 L90,6.67144229 M113,11.8476792 L113,18.37976 L98.1966851,18.3358025 L98.1966851,30 L90,30 L90,11.8476792" id="Fill-9" fill="#181818"></path>
                <g id="Group-13" transform="translate(117.000000, 0.000000)">
                    <mask id="mask-6" fill="white">
                        <use xlink:href="#path-5"></use>
                    </mask>
                    <g id="Clip-12"></g>
                    <polygon id="Fill-11" fill="#181818" mask="url(#mask-6)" points="0.1224 29.9998865 0.2032 0.118427027 7.912 0.118427027 7.8312 29.9998865"></polygon>
                </g>
            </g>
        </g>
    </g>
</svg>